<?xml version="1.0" encoding="UTF-8"?>
<svg viewBox="0 0 2640 1660" width="2640" height="1660" xmlns="http://www.w3.org/2000/svg" font-family="-apple-system, Segoe UI, Roboto, sans-serif"><defs><marker id="ar_d" viewBox="0 0 10 10" refX="9" refY="5" markerWidth="6" markerHeight="6" orient="auto-start-reverse"><path d="M0 0 L10 5 L0 10 z" fill="#15387a"/></marker><marker id="ar_c" viewBox="0 0 10 10" refX="9" refY="5" markerWidth="6" markerHeight="6" orient="auto-start-reverse"><path d="M0 0 L10 5 L0 10 z" fill="#c62828"/></marker><marker id="ar_f" viewBox="0 0 10 10" refX="9" refY="5" markerWidth="6" markerHeight="6" orient="auto-start-reverse"><path d="M0 0 L10 5 L0 10 z" fill="#6a1b9a"/></marker><marker id="ar_h" viewBox="0 0 10 10" refX="9" refY="5" markerWidth="6" markerHeight="6" orient="auto-start-reverse"><path d="M0 0 L10 5 L0 10 z" fill="#ef6c00"/></marker><marker id="ar_g" viewBox="0 0 10 10" refX="9" refY="5" markerWidth="6" markerHeight="6" orient="auto-start-reverse"><path d="M0 0 L10 5 L0 10 z" fill="#2e7d32"/></marker><marker id="ar_e" viewBox="0 0 10 10" refX="9" refY="5" markerWidth="6" markerHeight="6" orient="auto-start-reverse"><path d="M0 0 L10 5 L0 10 z" fill="#e65100"/></marker></defs><rect width="2640" height="1660" fill="#ffffff"/><rect x="30" y="250" width="400" height="1060" fill="#e7f1fb"/><text x="230.0" y="238" text-anchor="middle" font-size="23" font-weight="bold" fill="#1565c0" >IF</text><rect x="462" y="250" width="468" height="1060" fill="#e9f7ec"/><text x="696.0" y="238" text-anchor="middle" font-size="23" font-weight="bold" fill="#2e7d32" >ID</text><rect x="962" y="250" width="820" height="1060" fill="#fff4e5"/><text x="1372.0" y="238" text-anchor="middle" font-size="23" font-weight="bold" fill="#e65100" >EX</text><rect x="1814" y="250" width="348" height="1060" fill="#f5ecf8"/><text x="1988.0" y="238" text-anchor="middle" font-size="23" font-weight="bold" fill="#6a1b9a" >MEM</text><rect x="2194" y="250" width="420" height="1060" fill="#e4f6f9"/><text x="2404.0" y="238" text-anchor="middle" font-size="23" font-weight="bold" fill="#00838f" >WB</text><rect x="436" y="250" width="22" height="1060" rx="3" fill="#37474f"/><text x="447" y="760" text-anchor="middle" font-size="13" font-weight="bold" fill="#fff" transform="rotate(-90 447 760)">IF / ID</text><rect x="936" y="250" width="22" height="1060" rx="3" fill="#37474f"/><text x="947" y="760" text-anchor="middle" font-size="13" font-weight="bold" fill="#fff" transform="rotate(-90 947 760)">ID / EX</text><rect x="1788" y="250" width="22" height="1060" rx="3" fill="#37474f"/><text x="1799" y="760" text-anchor="middle" font-size="13" font-weight="bold" fill="#fff" transform="rotate(-90 1799 760)">EX / MEM</text><rect x="2168" y="250" width="22" height="1060" rx="3" fill="#37474f"/><text x="2179" y="760" text-anchor="middle" font-size="13" font-weight="bold" fill="#fff" transform="rotate(-90 2179 760)">MEM / WB</text><text x="30" y="42" text-anchor="start" font-size="18" font-weight="bold" fill="#10243f" >RV32IM 5-stage core — detailed datapath (rv32im_core_pipelined.sv)</text><text x="30" y="64" text-anchor="start" font-size="12.5" font-weight="normal" fill="#555" >each box = one .sv module with its real ports;  arrows = RTL signals;  green=PC/branch  purple=forwarding  orange=hazard  navy=data</text><rect x="60" y="300" width="280" height="80" rx="8" fill="#f4f4f4" stroke="#888" stroke-width="2.4" stroke-dasharray="7 5"/><text x="200.0" y="322" text-anchor="middle" font-size="15" font-weight="bold" fill="#10243f" >Instruction Memory</text><text x="200.0" y="339" text-anchor="middle" font-size="10" font-weight="normal" fill="#6a7785" font-style="italic">external (I-cache)</text><text x="67" y="361" text-anchor="start" font-size="9" font-weight="normal" fill="#1d4e2a" >ADDR = imem_addr_o</text><circle cx="60" cy="358" r="2.6" fill="#888"/><text x="333" y="361" text-anchor="end" font-size="9" font-weight="normal" fill="#8a3b12" >RD = imem_data_i</text><circle cx="340" cy="358" r="2.6" fill="#888"/><rect x="90" y="560" width="250" height="112" rx="8" fill="#fff" stroke="#1565c0" stroke-width="2.4"/><text x="215.0" y="582" text-anchor="middle" font-size="15" font-weight="bold" fill="#10243f" >Program Counter</text><text x="215.0" y="599" text-anchor="middle" font-size="10" font-weight="normal" fill="#6a7785" font-style="italic">u_pc · pc.sv</text><text x="97" y="621" text-anchor="start" font-size="9" font-weight="normal" fill="#1d4e2a" >stall_i</text><circle cx="90" cy="618" r="2.6" fill="#1565c0"/><text x="97" y="637" text-anchor="start" font-size="9" font-weight="normal" fill="#1d4e2a" >pc_sel_i</text><circle cx="90" cy="634" r="2.6" fill="#1565c0"/><text x="97" y="653" text-anchor="start" font-size="9" font-weight="normal" fill="#1d4e2a" >branch_target_i</text><circle cx="90" cy="650" r="2.6" fill="#1565c0"/><text x="333" y="621" text-anchor="end" font-size="9" font-weight="normal" fill="#8a3b12" >pc_o</text><circle cx="340" cy="618" r="2.6" fill="#1565c0"/><text x="333" y="637" text-anchor="end" font-size="9" font-weight="normal" fill="#8a3b12" >pc_plus4_o</text><circle cx="340" cy="634" r="2.6" fill="#1565c0"/><rect x="500" y="300" width="322" height="160" rx="8" fill="#fff" stroke="#2e7d32" stroke-width="2.4"/><text x="661.0" y="322" text-anchor="middle" font-size="15" font-weight="bold" fill="#10243f" >Decoder</text><text x="661.0" y="339" text-anchor="middle" font-size="10" font-weight="normal" fill="#6a7785" font-style="italic">u_decoder · decoder.sv</text><text x="507" y="361" text-anchor="start" font-size="9" font-weight="normal" fill="#1d4e2a" >inst_i [31:0]</text><circle cx="500" cy="358" r="2.6" fill="#2e7d32"/><text x="815" y="361" text-anchor="end" font-size="9" font-weight="normal" fill="#8a3b12" >opcode_o</text><circle cx="822" cy="358" r="2.6" fill="#2e7d32"/><text x="815" y="377" text-anchor="end" font-size="9" font-weight="normal" fill="#8a3b12" >rd_o</text><circle cx="822" cy="374" r="2.6" fill="#2e7d32"/><text x="815" y="393" text-anchor="end" font-size="9" font-weight="normal" fill="#8a3b12" >rs1_o</text><circle cx="822" cy="390" r="2.6" fill="#2e7d32"/><text x="815" y="409" text-anchor="end" font-size="9" font-weight="normal" fill="#8a3b12" >rs2_o</text><circle cx="822" cy="406" r="2.6" fill="#2e7d32"/><text x="815" y="425" text-anchor="end" font-size="9" font-weight="normal" fill="#8a3b12" >funct3_o</text><circle cx="822" cy="422" r="2.6" fill="#2e7d32"/><text x="815" y="441" text-anchor="end" font-size="9" font-weight="normal" fill="#8a3b12" >funct7_o</text><circle cx="822" cy="438" r="2.6" fill="#2e7d32"/><rect x="500" y="540" width="322" height="224" rx="8" fill="#fff" stroke="#2e7d32" stroke-width="2.4"/><text x="661.0" y="562" text-anchor="middle" font-size="15" font-weight="bold" fill="#10243f" >Control Unit</text><text x="661.0" y="579" text-anchor="middle" font-size="10" font-weight="normal" fill="#6a7785" font-style="italic">u_ctrl · control_unit.sv</text><text x="507" y="601" text-anchor="start" font-size="9" font-weight="normal" fill="#1d4e2a" >opcode_i</text><circle cx="500" cy="598" r="2.6" fill="#2e7d32"/><text x="507" y="617" text-anchor="start" font-size="9" font-weight="normal" fill="#1d4e2a" >funct3_i</text><circle cx="500" cy="614" r="2.6" fill="#2e7d32"/><text x="507" y="633" text-anchor="start" font-size="9" font-weight="normal" fill="#1d4e2a" >funct7_i</text><circle cx="500" cy="630" r="2.6" fill="#2e7d32"/><text x="815" y="601" text-anchor="end" font-size="9" font-weight="normal" fill="#8a3b12" >reg_we_o</text><circle cx="822" cy="598" r="2.6" fill="#2e7d32"/><text x="815" y="617" text-anchor="end" font-size="9" font-weight="normal" fill="#8a3b12" >alu_a_sel_o</text><circle cx="822" cy="614" r="2.6" fill="#2e7d32"/><text x="815" y="633" text-anchor="end" font-size="9" font-weight="normal" fill="#8a3b12" >alu_b_sel_o</text><circle cx="822" cy="630" r="2.6" fill="#2e7d32"/><text x="815" y="649" text-anchor="end" font-size="9" font-weight="normal" fill="#8a3b12" >alu_op_o</text><circle cx="822" cy="646" r="2.6" fill="#2e7d32"/><text x="815" y="665" text-anchor="end" font-size="9" font-weight="normal" fill="#8a3b12" >imm_type_o</text><circle cx="822" cy="662" r="2.6" fill="#2e7d32"/><text x="815" y="681" text-anchor="end" font-size="9" font-weight="normal" fill="#8a3b12" >mem_we_o</text><circle cx="822" cy="678" r="2.6" fill="#2e7d32"/><text x="815" y="697" text-anchor="end" font-size="9" font-weight="normal" fill="#8a3b12" >mem_re_o</text><circle cx="822" cy="694" r="2.6" fill="#2e7d32"/><text x="815" y="713" text-anchor="end" font-size="9" font-weight="normal" fill="#8a3b12" >wb_sel_o</text><circle cx="822" cy="710" r="2.6" fill="#2e7d32"/><text x="815" y="729" text-anchor="end" font-size="9" font-weight="normal" fill="#8a3b12" >br_type_o</text><circle cx="822" cy="726" r="2.6" fill="#2e7d32"/><text x="815" y="745" text-anchor="end" font-size="9" font-weight="normal" fill="#8a3b12" >is_b/jal/jalr/mdiv_o</text><circle cx="822" cy="742" r="2.6" fill="#2e7d32"/><rect x="500" y="788" width="322" height="96" rx="8" fill="#fff" stroke="#2e7d32" stroke-width="2.4"/><text x="661.0" y="810" text-anchor="middle" font-size="15" font-weight="bold" fill="#10243f" >Immediate Gen</text><text x="661.0" y="827" text-anchor="middle" font-size="10" font-weight="normal" fill="#6a7785" font-style="italic">u_immgen · immgen.sv</text><text x="507" y="849" text-anchor="start" font-size="9" font-weight="normal" fill="#1d4e2a" >inst_i [31:0]</text><circle cx="500" cy="846" r="2.6" fill="#2e7d32"/><text x="507" y="865" text-anchor="start" font-size="9" font-weight="normal" fill="#1d4e2a" >imm_type_i</text><circle cx="500" cy="862" r="2.6" fill="#2e7d32"/><text x="815" y="849" text-anchor="end" font-size="9" font-weight="normal" fill="#8a3b12" >imm_o [31:0]</text><circle cx="822" cy="846" r="2.6" fill="#2e7d32"/><rect x="500" y="1010" width="322" height="144" rx="8" fill="#fff" stroke="#2e7d32" stroke-width="2.4"/><text x="661.0" y="1032" text-anchor="middle" font-size="15" font-weight="bold" fill="#10243f" >Register File</text><text x="661.0" y="1049" text-anchor="middle" font-size="10" font-weight="normal" fill="#6a7785" font-style="italic">u_regfile · regfile.sv</text><text x="507" y="1071" text-anchor="start" font-size="9" font-weight="normal" fill="#1d4e2a" >rs1_addr_i</text><circle cx="500" cy="1068" r="2.6" fill="#2e7d32"/><text x="507" y="1087" text-anchor="start" font-size="9" font-weight="normal" fill="#1d4e2a" >rs2_addr_i</text><circle cx="500" cy="1084" r="2.6" fill="#2e7d32"/><text x="507" y="1103" text-anchor="start" font-size="9" font-weight="normal" fill="#1d4e2a" >we_i</text><circle cx="500" cy="1100" r="2.6" fill="#2e7d32"/><text x="507" y="1119" text-anchor="start" font-size="9" font-weight="normal" fill="#1d4e2a" >rd_addr_i</text><circle cx="500" cy="1116" r="2.6" fill="#2e7d32"/><text x="507" y="1135" text-anchor="start" font-size="9" font-weight="normal" fill="#1d4e2a" >rd_data_i [31:0]</text><circle cx="500" cy="1132" r="2.6" fill="#2e7d32"/><text x="815" y="1071" text-anchor="end" font-size="9" font-weight="normal" fill="#8a3b12" >rs1_data_o [31:0]</text><circle cx="822" cy="1068" r="2.6" fill="#2e7d32"/><text x="815" y="1087" text-anchor="end" font-size="9" font-weight="normal" fill="#8a3b12" >rs2_data_o [31:0]</text><circle cx="822" cy="1084" r="2.6" fill="#2e7d32"/><polygon points="990,560 1014,573 1014,631 990,644" fill="#dfe6ea" stroke="#455a64" stroke-width="1.8"/><polygon points="990,820 1014,833 1014,891 990,904" fill="#dfe6ea" stroke="#455a64" stroke-width="1.8"/><polygon points="1150,560 1174,573 1174,623 1150,636" fill="#dfe6ea" stroke="#455a64" stroke-width="1.8"/><polygon points="1150,672 1174,685 1174,735 1150,748" fill="#dfe6ea" stroke="#455a64" stroke-width="1.8"/><rect x="1300" y="540" width="270" height="112" rx="8" fill="#ffe0b2" stroke="#e65100" stroke-width="2.4"/><text x="1435.0" y="562" text-anchor="middle" font-size="15" font-weight="bold" fill="#10243f" >ALU</text><text x="1435.0" y="579" text-anchor="middle" font-size="10" font-weight="normal" fill="#6a7785" font-style="italic">u_alu · alu.sv</text><text x="1307" y="601" text-anchor="start" font-size="9" font-weight="normal" fill="#1d4e2a" >operand_a_i [31:0]</text><circle cx="1300" cy="598" r="2.6" fill="#e65100"/><text x="1307" y="617" text-anchor="start" font-size="9" font-weight="normal" fill="#1d4e2a" >operand_b_i [31:0]</text><circle cx="1300" cy="614" r="2.6" fill="#e65100"/><text x="1307" y="633" text-anchor="start" font-size="9" font-weight="normal" fill="#1d4e2a" >alu_op_i</text><circle cx="1300" cy="630" r="2.6" fill="#e65100"/><text x="1563" y="601" text-anchor="end" font-size="9" font-weight="normal" fill="#8a3b12" >result_o [31:0]</text><circle cx="1570" cy="598" r="2.6" fill="#e65100"/><text x="1563" y="617" text-anchor="end" font-size="9" font-weight="normal" fill="#8a3b12" >zero_o</text><circle cx="1570" cy="614" r="2.6" fill="#e65100"/><rect x="1300" y="760" width="270" height="112" rx="8" fill="#fff" stroke="#e65100" stroke-width="2.4"/><text x="1435.0" y="782" text-anchor="middle" font-size="15" font-weight="bold" fill="#10243f" >Branch Comparator</text><text x="1435.0" y="799" text-anchor="middle" font-size="10" font-weight="normal" fill="#6a7785" font-style="italic">u_branch · branch_unit.sv</text><text x="1307" y="821" text-anchor="start" font-size="9" font-weight="normal" fill="#1d4e2a" >rs1_i [31:0]</text><circle cx="1300" cy="818" r="2.6" fill="#e65100"/><text x="1307" y="837" text-anchor="start" font-size="9" font-weight="normal" fill="#1d4e2a" >rs2_i [31:0]</text><circle cx="1300" cy="834" r="2.6" fill="#e65100"/><text x="1307" y="853" text-anchor="start" font-size="9" font-weight="normal" fill="#1d4e2a" >br_type_i</text><circle cx="1300" cy="850" r="2.6" fill="#e65100"/><text x="1563" y="821" text-anchor="end" font-size="9" font-weight="normal" fill="#8a3b12" >taken_o</text><circle cx="1570" cy="818" r="2.6" fill="#e65100"/><rect x="1300" y="920" width="270" height="128" rx="8" fill="#fff" stroke="#e65100" stroke-width="2.4"/><text x="1435.0" y="942" text-anchor="middle" font-size="15" font-weight="bold" fill="#10243f" >Mul / Div (M-ext)</text><text x="1435.0" y="959" text-anchor="middle" font-size="10" font-weight="normal" fill="#6a7785" font-style="italic">u_mul_div · mul_div.sv</text><text x="1307" y="981" text-anchor="start" font-size="9" font-weight="normal" fill="#1d4e2a" >start_i</text><circle cx="1300" cy="978" r="2.6" fill="#e65100"/><text x="1307" y="997" text-anchor="start" font-size="9" font-weight="normal" fill="#1d4e2a" >funct3_i</text><circle cx="1300" cy="994" r="2.6" fill="#e65100"/><text x="1307" y="1013" text-anchor="start" font-size="9" font-weight="normal" fill="#1d4e2a" >operand_a_i</text><circle cx="1300" cy="1010" r="2.6" fill="#e65100"/><text x="1307" y="1029" text-anchor="start" font-size="9" font-weight="normal" fill="#1d4e2a" >operand_b_i</text><circle cx="1300" cy="1026" r="2.6" fill="#e65100"/><text x="1563" y="981" text-anchor="end" font-size="9" font-weight="normal" fill="#8a3b12" >result_o [31:0]</text><circle cx="1570" cy="978" r="2.6" fill="#e65100"/><text x="1563" y="997" text-anchor="end" font-size="9" font-weight="normal" fill="#8a3b12" >busy_o</text><circle cx="1570" cy="994" r="2.6" fill="#e65100"/><text x="1563" y="1013" text-anchor="end" font-size="9" font-weight="normal" fill="#8a3b12" >done_o</text><circle cx="1570" cy="1010" r="2.6" fill="#e65100"/><polygon points="1620,580 1644,593 1644,651 1620,664" fill="#dfe6ea" stroke="#455a64" stroke-width="1.8"/><rect x="1850" y="560" width="300" height="128" rx="8" fill="#f4f4f4" stroke="#888" stroke-width="2.4" stroke-dasharray="7 5"/><text x="2000.0" y="582" text-anchor="middle" font-size="15" font-weight="bold" fill="#10243f" >Data Memory</text><text x="2000.0" y="599" text-anchor="middle" font-size="10" font-weight="normal" fill="#6a7785" font-style="italic">external (D-cache / MMIO)</text><text x="1857" y="621" text-anchor="start" font-size="9" font-weight="normal" fill="#1d4e2a" >ADDR = dmem_addr_o</text><circle cx="1850" cy="618" r="2.6" fill="#888"/><text x="1857" y="637" text-anchor="start" font-size="9" font-weight="normal" fill="#1d4e2a" >DATAW = wdata</text><circle cx="1850" cy="634" r="2.6" fill="#888"/><text x="1857" y="653" text-anchor="start" font-size="9" font-weight="normal" fill="#1d4e2a" >WE / RE</text><circle cx="1850" cy="650" r="2.6" fill="#888"/><text x="1857" y="669" text-anchor="start" font-size="9" font-weight="normal" fill="#1d4e2a" >FUNC3</text><circle cx="1850" cy="666" r="2.6" fill="#888"/><text x="2143" y="621" text-anchor="end" font-size="9" font-weight="normal" fill="#8a3b12" >DATAR = dmem_rdata_i</text><circle cx="2150" cy="618" r="2.6" fill="#888"/><polygon points="1850,860 1874,873 1874,937 1850,950" fill="#dfe6ea" stroke="#455a64" stroke-width="1.8"/><rect x="2250" y="640" width="310" height="80" rx="8" fill="#fff" stroke="#00838f" stroke-width="2.4"/><text x="2405.0" y="662" text-anchor="middle" font-size="15" font-weight="bold" fill="#10243f" >Write-back</text><text x="2405.0" y="679" text-anchor="middle" font-size="10" font-weight="normal" fill="#6a7785" font-style="italic">wb_rd / wb_rd_data / wb_reg_we</text><text x="2257" y="701" text-anchor="start" font-size="9" font-weight="normal" fill="#1d4e2a" >memwb_rd_data [31:0]</text><circle cx="2250" cy="698" r="2.6" fill="#00838f"/><text x="2553" y="701" text-anchor="end" font-size="9" font-weight="normal" fill="#8a3b12" >-&gt; regfile write</text><circle cx="2560" cy="698" r="2.6" fill="#00838f"/><rect x="500" y="1350" width="400" height="160" rx="8" fill="#fde8e0" stroke="#ef6c00" stroke-width="2.4"/><text x="700.0" y="1372" text-anchor="middle" font-size="15" font-weight="bold" fill="#10243f" >Hazard Unit</text><text x="700.0" y="1389" text-anchor="middle" font-size="10" font-weight="normal" fill="#6a7785" font-style="italic">u_hazard · hazard_unit.sv</text><text x="507" y="1411" text-anchor="start" font-size="9" font-weight="normal" fill="#1d4e2a" >id_rs1_i</text><circle cx="500" cy="1408" r="2.6" fill="#ef6c00"/><text x="507" y="1427" text-anchor="start" font-size="9" font-weight="normal" fill="#1d4e2a" >id_rs2_i</text><circle cx="500" cy="1424" r="2.6" fill="#ef6c00"/><text x="507" y="1443" text-anchor="start" font-size="9" font-weight="normal" fill="#1d4e2a" >ex_rd_i</text><circle cx="500" cy="1440" r="2.6" fill="#ef6c00"/><text x="507" y="1459" text-anchor="start" font-size="9" font-weight="normal" fill="#1d4e2a" >ex_mem_re_i</text><circle cx="500" cy="1456" r="2.6" fill="#ef6c00"/><text x="507" y="1475" text-anchor="start" font-size="9" font-weight="normal" fill="#1d4e2a" >mdiv_busy_i</text><circle cx="500" cy="1472" r="2.6" fill="#ef6c00"/><text x="507" y="1491" text-anchor="start" font-size="9" font-weight="normal" fill="#1d4e2a" >mdiv_done_i</text><circle cx="500" cy="1488" r="2.6" fill="#ef6c00"/><text x="893" y="1411" text-anchor="end" font-size="9" font-weight="normal" fill="#8a3b12" >stall_pc_o</text><circle cx="900" cy="1408" r="2.6" fill="#ef6c00"/><text x="893" y="1427" text-anchor="end" font-size="9" font-weight="normal" fill="#8a3b12" >stall_ifid_o</text><circle cx="900" cy="1424" r="2.6" fill="#ef6c00"/><text x="893" y="1443" text-anchor="end" font-size="9" font-weight="normal" fill="#8a3b12" >stall_idex_o</text><circle cx="900" cy="1440" r="2.6" fill="#ef6c00"/><text x="893" y="1459" text-anchor="end" font-size="9" font-weight="normal" fill="#8a3b12" >bubble_idex_o</text><circle cx="900" cy="1456" r="2.6" fill="#ef6c00"/><text x="893" y="1475" text-anchor="end" font-size="9" font-weight="normal" fill="#8a3b12" >bubble_exmem_o</text><circle cx="900" cy="1472" r="2.6" fill="#ef6c00"/><rect x="1020" y="1350" width="440" height="160" rx="8" fill="#f3e5f5" stroke="#6a1b9a" stroke-width="2.4"/><text x="1240.0" y="1372" text-anchor="middle" font-size="15" font-weight="bold" fill="#10243f" >Forwarding Unit</text><text x="1240.0" y="1389" text-anchor="middle" font-size="10" font-weight="normal" fill="#6a7785" font-style="italic">u_fwd · forwarding_unit.sv</text><text x="1027" y="1411" text-anchor="start" font-size="9" font-weight="normal" fill="#1d4e2a" >ex_rs1_i</text><circle cx="1020" cy="1408" r="2.6" fill="#6a1b9a"/><text x="1027" y="1427" text-anchor="start" font-size="9" font-weight="normal" fill="#1d4e2a" >ex_rs2_i</text><circle cx="1020" cy="1424" r="2.6" fill="#6a1b9a"/><text x="1027" y="1443" text-anchor="start" font-size="9" font-weight="normal" fill="#1d4e2a" >mem_rd_i</text><circle cx="1020" cy="1440" r="2.6" fill="#6a1b9a"/><text x="1027" y="1459" text-anchor="start" font-size="9" font-weight="normal" fill="#1d4e2a" >mem_reg_we_i</text><circle cx="1020" cy="1456" r="2.6" fill="#6a1b9a"/><text x="1027" y="1475" text-anchor="start" font-size="9" font-weight="normal" fill="#1d4e2a" >wb_rd_i</text><circle cx="1020" cy="1472" r="2.6" fill="#6a1b9a"/><text x="1027" y="1491" text-anchor="start" font-size="9" font-weight="normal" fill="#1d4e2a" >wb_reg_we_i</text><circle cx="1020" cy="1488" r="2.6" fill="#6a1b9a"/><text x="1453" y="1411" text-anchor="end" font-size="9" font-weight="normal" fill="#8a3b12" >fwd_a_o</text><circle cx="1460" cy="1408" r="2.6" fill="#6a1b9a"/><text x="1453" y="1427" text-anchor="end" font-size="9" font-weight="normal" fill="#8a3b12" >fwd_b_o</text><circle cx="1460" cy="1424" r="2.6" fill="#6a1b9a"/><text x="1002.0" y="657" text-anchor="middle" font-size="9" font-weight="normal" fill="#455a64" >fwd_a</text><text x="994" y="579" text-anchor="start" font-size="8" font-weight="normal" fill="#455a64" >rf</text><text x="994" y="605.0" text-anchor="start" font-size="8" font-weight="normal" fill="#455a64" >M</text><text x="994" y="631" text-anchor="start" font-size="8" font-weight="normal" fill="#455a64" >W</text><text x="1002.0" y="917" text-anchor="middle" font-size="9" font-weight="normal" fill="#455a64" >fwd_b</text><text x="994" y="839" text-anchor="start" font-size="8" font-weight="normal" fill="#455a64" >rf</text><text x="994" y="865.0" text-anchor="start" font-size="8" font-weight="normal" fill="#455a64" >M</text><text x="994" y="891" text-anchor="start" font-size="8" font-weight="normal" fill="#455a64" >W</text><text x="1162.0" y="649" text-anchor="middle" font-size="9" font-weight="normal" fill="#455a64" >alu_a_sel</text><text x="1154" y="579" text-anchor="start" font-size="8" font-weight="normal" fill="#455a64" >rs1</text><text x="1154" y="601.0" text-anchor="start" font-size="8" font-weight="normal" fill="#455a64" >pc</text><text x="1162.0" y="761" text-anchor="middle" font-size="9" font-weight="normal" fill="#455a64" >alu_b_sel</text><text x="1154" y="691" text-anchor="start" font-size="8" font-weight="normal" fill="#455a64" >rs2</text><text x="1154" y="713.0" text-anchor="start" font-size="8" font-weight="normal" fill="#455a64" >imm</text><text x="1632.0" y="677" text-anchor="middle" font-size="9" font-weight="normal" fill="#455a64" >is_mdiv</text><text x="1624" y="599" text-anchor="start" font-size="8" font-weight="normal" fill="#455a64" >alu</text><text x="1624" y="625.0" text-anchor="start" font-size="8" font-weight="normal" fill="#455a64" >mdiv</text><text x="1862.0" y="963" text-anchor="middle" font-size="9" font-weight="normal" fill="#455a64" >wb_sel</text><text x="1854" y="879" text-anchor="start" font-size="8" font-weight="normal" fill="#455a64" >alu</text><text x="1854" y="908.0" text-anchor="start" font-size="8" font-weight="normal" fill="#455a64" >mem</text><polyline points="340,618 380,618 380,358 60,358" fill="none" stroke="#15387a" stroke-width="2.1" marker-end="url(#ar_d)"/><polyline points="340,358 350,358 350,400 436,400" fill="none" stroke="#15387a" stroke-width="2.1" marker-end="url(#ar_d)"/><text x="348" y="470" text-anchor="middle" font-size="9" font-weight="normal" fill="#1a1a1a" >if_inst</text><polyline points="340,634 360,634 360,360 436,360" fill="none" stroke="#15387a" stroke-width="2.1" marker-end="url(#ar_d)"/><text x="400" y="352" text-anchor="middle" font-size="8.5" font-weight="normal" fill="#1a1a1a" >pc_plus4 -&gt; IF/ID</text><polyline points="458,360 474,360 474,358 500,358" fill="none" stroke="#15387a" stroke-width="2.1" marker-end="url(#ar_d)"/><text x="466" y="330" text-anchor="start" font-size="9" font-weight="normal" fill="#1a1a1a" >ifid_inst[31:0]</text><polyline points="458,540 470,540 470,846 500,846" fill="none" stroke="#15387a" stroke-width="2.1" marker-end="url(#ar_d)"/><polyline points="822,358 470,358 470,598 500,598" fill="none" stroke="#15387a" stroke-width="2.1" marker-end="url(#ar_d)"/><polyline points="822,422 462,422 462,614 500,614" fill="none" stroke="#15387a" stroke-width="2.1" marker-end="url(#ar_d)"/><polyline points="822,438 466,438 466,630 500,630" fill="none" stroke="#15387a" stroke-width="2.1" marker-end="url(#ar_d)"/><polyline points="822,390 842,390 842,1068 500,1068" fill="none" stroke="#15387a" stroke-width="2.1" marker-end="url(#ar_d)"/><text x="846" y="1054" text-anchor="start" font-size="8.5" font-weight="normal" fill="#2e7d32" >rs1[19:15]</text><polyline points="822,406 852,406 852,1084 500,1084" fill="none" stroke="#15387a" stroke-width="2.1" marker-end="url(#ar_d)"/><polyline points="822,662 858,662 858,862 500,862" fill="none" stroke="#15387a" stroke-width="2.1" marker-end="url(#ar_d)"/><rect x="836" y="560" width="92" height="220" rx="4" fill="none" stroke="#2e7d32" stroke-dasharray="4 3"/><text x="882" y="548" text-anchor="middle" font-size="8.5" font-weight="normal" fill="#2e7d32" >control bundle -&gt; ID/EX</text><polyline points="822,598 838,598" fill="none" stroke="#2e7d32" stroke-width="1.5" marker-end="url(#ar_g)"/><polyline points="822,614 838,614" fill="none" stroke="#2e7d32" stroke-width="1.5" marker-end="url(#ar_g)"/><polyline points="822,630 838,630" fill="none" stroke="#2e7d32" stroke-width="1.5" marker-end="url(#ar_g)"/><polyline points="822,646 838,646" fill="none" stroke="#2e7d32" stroke-width="1.5" marker-end="url(#ar_g)"/><polyline points="822,678 838,678" fill="none" stroke="#2e7d32" stroke-width="1.5" marker-end="url(#ar_g)"/><polyline points="822,694 838,694" fill="none" stroke="#2e7d32" stroke-width="1.5" marker-end="url(#ar_g)"/><polyline points="822,710 838,710" fill="none" stroke="#2e7d32" stroke-width="1.5" marker-end="url(#ar_g)"/><polyline points="822,726 838,726" fill="none" stroke="#2e7d32" stroke-width="1.5" marker-end="url(#ar_g)"/><polyline points="822,742 838,742" fill="none" stroke="#2e7d32" stroke-width="1.5" marker-end="url(#ar_g)"/><polyline points="928,650 936,650" fill="none" stroke="#2e7d32" stroke-width="2.1" marker-end="url(#ar_g)"/><polyline points="822,846 900,846 900,846 936,846" fill="none" stroke="#15387a" stroke-width="2.1" marker-end="url(#ar_d)"/><polyline points="822,1068 890,1068 890,1042 936,1042" fill="none" stroke="#15387a" stroke-width="2.1" marker-end="url(#ar_d)"/><text x="900" y="1036" text-anchor="start" font-size="8.5" font-weight="normal" fill="#1a1a1a" >rs1_data[31:0]</text><polyline points="822,1084 886,1084 886,1062 936,1062" fill="none" stroke="#15387a" stroke-width="2.1" marker-end="url(#ar_d)"/><text x="900" y="1080" text-anchor="start" font-size="8.5" font-weight="normal" fill="#1a1a1a" >rs2_data[31:0]</text><polyline points="958,1042 972,1042 972,576 990,576" fill="none" stroke="#15387a" stroke-width="2.1" marker-end="url(#ar_d)"/><text x="960" y="600" text-anchor="start" font-size="8.5" font-weight="normal" fill="#1a1a1a" >idex_rs1_data[31:0]</text><polyline points="958,1062 966,1062 966,836 990,836" fill="none" stroke="#15387a" stroke-width="2.1" marker-end="url(#ar_d)"/><text x="960" y="860" text-anchor="start" font-size="8.5" font-weight="normal" fill="#1a1a1a" >idex_rs2_data[31:0]</text><polyline points="1014,602.0 1080,602.0 1080,576 1150,576" fill="none" stroke="#15387a" stroke-width="2.1" marker-end="url(#ar_d)"/><text x="1040" y="594" text-anchor="start" font-size="8.5" font-weight="normal" fill="#1a1a1a" >ex_rs1_fwd</text><circle cx="1080" cy="602.0" r="3.6" fill="#15387a"/><line x1="1080" y1="602.0" x2="1080" y2="1000" stroke="#15387a" stroke-width="2.1"/><polyline points="1014,862.0 1110,862.0 1110,688 1150,688" fill="none" stroke="#15387a" stroke-width="2.1" marker-end="url(#ar_d)"/><text x="1040" y="854" text-anchor="start" font-size="8.5" font-weight="normal" fill="#1a1a1a" >ex_rs2_fwd</text><circle cx="1110" cy="862.0" r="3.6" fill="#15387a"/><line x1="1110" y1="862.0" x2="1110" y2="1010" stroke="#15387a" stroke-width="2.1"/><polyline points="958,520 1130,520 1130,598.0 1150,598.0" fill="none" stroke="#15387a" stroke-width="2.0" marker-end="url(#ar_d)"/><text x="960" y="514" text-anchor="start" font-size="8.5" font-weight="normal" fill="#2e7d32" >idex_pc</text><polyline points="958,700 1126,700 1126,710.0 1150,710.0" fill="none" stroke="#15387a" stroke-width="2.1" marker-end="url(#ar_d)"/><text x="960" y="716" text-anchor="start" font-size="8.5" font-weight="normal" fill="#1a1a1a" >idex_imm</text><polyline points="1174,598.0 1255,598.0 1255,598 1300,598" fill="none" stroke="#15387a" stroke-width="2.1" marker-end="url(#ar_d)"/><polyline points="1174,710.0 1250,710.0 1250,614 1300,614" fill="none" stroke="#15387a" stroke-width="2.1" marker-end="url(#ar_d)"/><polyline points="1080,790 1255,790 1255,818 1300,818" fill="none" stroke="#15387a" stroke-width="2.1" marker-end="url(#ar_d)"/><polyline points="1110,880 1240,880 1240,834 1300,834" fill="none" stroke="#15387a" stroke-width="2.1" marker-end="url(#ar_d)"/><polyline points="1080,960 1255,960 1255,1010 1300,1010" fill="none" stroke="#15387a" stroke-width="2.1" marker-end="url(#ar_d)"/><polyline points="1110,980 1240,980 1240,1026 1300,1026" fill="none" stroke="#15387a" stroke-width="2.1" marker-end="url(#ar_d)"/><polyline points="1570,598 1600,598 1600,596 1620,596" fill="none" stroke="#15387a" stroke-width="2.1" marker-end="url(#ar_d)"/><text x="1576" y="560" text-anchor="start" font-size="8.5" font-weight="normal" fill="#1a1a1a" >ex_alu_result</text><polyline points="1570,978 1590,978 1590,622.0 1620,622.0" fill="none" stroke="#15387a" stroke-width="2.1" marker-end="url(#ar_d)"/><text x="1576" y="980" text-anchor="start" font-size="8.5" font-weight="normal" fill="#1a1a1a" >ex_mdiv_result</text><polyline points="1644,622.0 1700,622.0 1700,640 1788,640" fill="none" stroke="#15387a" stroke-width="2.1" marker-end="url(#ar_d)"/><text x="1660" y="634" text-anchor="start" font-size="8.5" font-weight="normal" fill="#1a1a1a" >ex_result_final[31:0]</text><polyline points="1570,818 1650,818" fill="none" stroke="#e65100" stroke-width="2.1" marker-end="url(#ar_e)"/><text x="1576" y="790" text-anchor="start" font-size="8.5" font-weight="normal" fill="#e65100" >ex_br_taken_raw</text><polyline points="1650,818 1650,200 200,200 200,560" fill="none" stroke="#2e7d32" stroke-width="2.1" marker-end="url(#ar_g)"/><text x="900" y="194" text-anchor="start" font-size="11" font-weight="normal" fill="#2e7d32" >ex_branch_taken / ex_branch_target  -&gt;  u_pc.pc_sel_i, branch_target_i   +   flush_ifid / flush_idex</text><polyline points="1110,1010 1110,1130 1788,1130" fill="none" stroke="#15387a" stroke-width="2.0" marker-end="url(#ar_d)"/><text x="1180" y="1124" text-anchor="start" font-size="8.5" font-weight="normal" fill="#1a1a1a" >exmem_rs2_data = dmem_wdata_o</text><polyline points="1810,640 1832,640 1832,618 1850,618" fill="none" stroke="#15387a" stroke-width="2.1" marker-end="url(#ar_d)"/><text x="1700" y="634" text-anchor="start" font-size="8.5" font-weight="normal" fill="#15387a" >exmem_alu_result[31:0]</text><polyline points="1810,720 1835,720 1835,876 1850,876" fill="none" stroke="#15387a" stroke-width="2.1" marker-end="url(#ar_d)"/><text x="1700" y="714" text-anchor="start" font-size="8.5" font-weight="normal" fill="#1a1a1a" >exmem_alu_result</text><polyline points="2150,618 2170,618 2170,905.0 1850,905.0" fill="none" stroke="#15387a" stroke-width="2.1" marker-end="url(#ar_d)"/><text x="2100" y="650" text-anchor="end" font-size="8.5" font-weight="normal" fill="#1a1a1a" >dmem_rdata_i[31:0]</text><polyline points="1874,905.0 1980,905.0 1980,905 2168,905" fill="none" stroke="#15387a" stroke-width="2.1" marker-end="url(#ar_d)"/><text x="1900" y="900" text-anchor="start" font-size="8.5" font-weight="normal" fill="#1a1a1a" >mem_wb_data[31:0]</text><text x="1830" y="1010" text-anchor="start" font-size="9" font-weight="normal" fill="#6a1b9a" >mem_stall = exmem_valid &amp; (mem_re|mem_we) &amp; !dmem_ready_i</text><polyline points="2190,905 2220,905 2220,698 2250,698" fill="none" stroke="#15387a" stroke-width="2.1" marker-end="url(#ar_d)"/><text x="2150" y="900" text-anchor="start" font-size="8.5" font-weight="normal" fill="#1a1a1a" >memwb_rd_data</text><polyline points="2560,698 2600,698 2600,1560 660,1560 660,1035" fill="none" stroke="#15387a" stroke-width="2.1" marker-end="url(#ar_d)"/><text x="1300" y="1554" text-anchor="middle" font-size="11" font-weight="normal" fill="#15387a" >wb_rd_data / wb_rd / wb_reg_we  -&gt;  Register File write port (we_i, rd_addr_i, rd_data_i)  +  WB-&gt;ID bypass  +  Forwarding Unit</text><polyline points="660,1300 640,1300 640,1132 500,1132" fill="none" stroke="#15387a" stroke-width="1.8" marker-end="url(#ar_d)"/><polyline points="640,1300 620,1300 620,1100 500,1100" fill="none" stroke="#15387a" stroke-width="1.8" marker-end="url(#ar_d)"/><polyline points="1460,1408 1200,1408 1200,644 1002.0,644" fill="none" stroke="#6a1b9a" stroke-width="2.1" stroke-dasharray="7 5" marker-end="url(#ar_f)"/><polyline points="1460,1424 1240,1424 1240,904 1002.0,904" fill="none" stroke="#6a1b9a" stroke-width="2.1" stroke-dasharray="7 5" marker-end="url(#ar_f)"/><polyline points="1874,905 1730,905 1730,1200 962,1200 962,628 990,628" fill="none" stroke="#6a1b9a" stroke-width="2.1" stroke-dasharray="7 5" marker-end="url(#ar_f)"/><text x="1200" y="1194" text-anchor="start" font-size="9" font-weight="normal" fill="#6a1b9a" >mem_wb_data (FWD_FROM_M)</text><polyline points="2560,698 2560,1240 950,1240 950,888 990,888" fill="none" stroke="#6a1b9a" stroke-width="2.1" stroke-dasharray="7 5" marker-end="url(#ar_f)"/><text x="1200" y="1234" text-anchor="start" font-size="9" font-weight="normal" fill="#6a1b9a" >wb_rd_data (FWD_FROM_W)</text><polyline points="900,1408 470,1408 470,618 90,618" fill="none" stroke="#ef6c00" stroke-width="2.1" stroke-dasharray="6 5" marker-end="url(#ar_h)"/><polyline points="900,1424 447,1424 447,250" fill="none" stroke="#ef6c00" stroke-width="2.1" stroke-dasharray="6 5" marker-end="url(#ar_h)"/><text x="420" y="1320" text-anchor="middle" font-size="8.5" font-weight="normal" fill="#b35400" >stall_ifid/flush -&gt; IF/ID</text><polyline points="900,1440 947,1440 947,250" fill="none" stroke="#ef6c00" stroke-width="2.1" stroke-dasharray="6 5" marker-end="url(#ar_h)"/><text x="700" y="1305" text-anchor="middle" font-size="8.5" font-weight="normal" fill="#b35400" >stall_idex/bubble -&gt; ID/EX</text><polyline points="900,1472 1799,1472 1799,250" fill="none" stroke="#ef6c00" stroke-width="2.1" stroke-dasharray="6 5" marker-end="url(#ar_h)"/><text x="1300" y="1290" text-anchor="middle" font-size="8.5" font-weight="normal" fill="#b35400" >bubble_exmem -&gt; EX/MEM</text><polyline points="1570,994 540,994 540,1472 500,1472" fill="none" stroke="#ef6c00" stroke-width="2.1" stroke-dasharray="6 5" marker-end="url(#ar_h)"/></svg>
